<svg width="1633" height="1082" viewBox="0 0 1633 1082" fill="none" xmlns="http://www.w3.org/2000/svg">
<path d="M225.97 745.794C259.128 743.285 291.549 749.038 320.485 765.799L320.431 749.909C358.382 762.958 378.342 774.065 404.19 805.084C403.304 788.721 403.801 768.327 403.83 751.655L510.697 751.751C533.533 751.738 557.018 750.733 579.588 754.246C617.173 760.099 656.832 789.241 665.191 827.852C684.365 794.99 708.254 772.845 743.057 757.417L743.18 785.813C792.317 735.533 883.352 733.829 941.006 770.399C940.886 763.739 941.092 758.056 941.396 751.422C983.193 765.417 1010.2 786.28 1034.24 823.734C1033.86 799.853 1033.94 775.739 1033.84 751.838C1065.62 751.573 1099.51 752.645 1131.88 752.556L1131.4 893.838C1131.39 914.92 1131.06 935.831 1132.24 956.944C1133.2 991.681 1199.54 991.319 1203.73 959.687C1206.75 936.824 1205.62 909.322 1205.62 886.132L1205.6 752.51C1244.19 752.618 1281.45 752.005 1319.93 751.65L1319.91 899.141C1319.91 916.746 1319.63 935.088 1319.9 952.636C1320.51 991.518 1309.33 1019.12 1278.74 1043.46C1278.67 1033.98 1278.68 1024.5 1278.8 1015.01C1265.82 1035.61 1246.46 1051.38 1223.67 1059.91C1186.96 1073.97 1139.55 1071.99 1103.61 1055.85C1080.84 1044.71 1069.13 1032.3 1055.39 1011.62L1055.86 1024.63C1046.17 1011.76 1040.99 1001.04 1037.31 985.424C1015.97 1024.1 982.791 1050.21 940.773 1063.07L940.899 1044.38C880.591 1080.97 795.696 1078.47 743.127 1028.97L743.162 1056.99C686.035 1029.57 655.742 988.332 646.06 926.152C637.669 935.745 633.118 939.054 622.57 946.403C632.336 963.31 642.868 984.73 652.091 1002.23C661.958 1020.96 674.179 1042.94 683.015 1061.92L562.436 1061.94L518.498 974.035L518.609 1061.82C480.481 1062.35 442.145 1061.39 403.873 1062.06L403.739 1011.68C379.48 1042.18 357.287 1054.85 320.416 1065.01L320.37 1051.94C266.842 1079.61 188.963 1074.27 141.401 1036.63C132.144 1029.31 119.403 1017.18 113.022 1007.3L113.097 1045.97C92.8554 1033.48 75.7024 1016.56 62.9286 996.496C39.1615 959.302 32.8099 910.423 42.3751 867.738C51.7419 826.413 77.1189 790.492 112.94 767.86C113.288 778.511 113.879 799.518 112.105 809.005C113.634 806.835 115.247 804.727 116.944 802.687C147.072 766.101 179.377 750.336 225.97 745.794ZM857.575 982.309C899.153 979.24 930.314 942.954 927.073 901.385C923.831 859.815 887.42 828.799 845.87 832.214C804.563 835.61 773.772 871.765 776.996 913.091C780.217 954.418 816.242 985.362 857.575 982.309ZM518.427 833.678L518.573 890.705C532.482 890.723 536.308 891.38 547.544 883.001C553.217 875.507 556.411 868.063 555.19 858.391C554.242 850.913 550.273 844.152 544.206 839.682C535.838 833.388 528.171 833.577 518.427 833.678ZM240.885 879.132C294.257 880.336 350.327 878.794 404.081 878.829C403.568 859.981 404.331 840.934 403.599 822.286L337.541 860.225C333.556 854.658 330.301 851.303 325.633 846.362L301.209 860.533C287.551 843.546 275.051 834.955 252.565 832.646C231.967 830.531 211.887 834.759 195.375 847.818C162.235 874.03 160.858 931.208 187.287 963.066C192.057 968.83 197.795 973.719 204.244 977.514C231.962 991.414 272.74 992.006 296.198 969.118C300.419 965.002 303.604 959.981 306.71 954.992C285.176 954.995 262.414 954.626 240.978 955.175C240.783 932.403 239.904 901.51 240.885 879.132Z" fill="#DDF438"/>
<path d="M620.15 390.714C665.616 385.844 706.751 400.706 740.314 430.953L740.364 419.217C792.757 457.597 815.26 514.859 803.562 578.748C796.171 618.234 773.412 653.171 740.285 675.888L740.226 661.057C724.166 676.684 703.301 688.532 681.928 695.028C639.606 707.634 594.005 702.827 555.241 681.676L555.723 696.828C477.634 667.103 443.845 608.672 449.393 526.379C433.461 580.682 419.235 642.132 402.021 695.163C387.952 695.206 372.657 696.899 358.297 696.522C344.984 696.171 332.499 694.91 319.151 695.158C316.839 685.948 314.131 676.684 311.419 667.58C298.47 624.102 286.639 580.128 273.383 536.758C267.382 559.441 260.073 583.212 253.538 605.837C245.046 635.692 236.34 665.485 227.421 695.215C199.813 694.983 172.201 694.968 144.592 695.173C141.371 684.125 138.383 672.736 135.334 661.618C123.176 619.184 112.082 576.148 99.5865 533.847C100.111 585.704 100.105 637.564 99.5669 689.422C93.0037 669.41 86.3537 642.863 80.6087 622.244L39.9066 476.148C32.8893 450.972 25.4244 421.374 17.4299 396.742L154.231 396.855C164.933 438.067 174.359 479.735 184.658 521.054C187.896 534.048 191.039 547.152 193.646 560.287L240.907 396.793C254.358 396.796 328.364 396.488 336.891 399.429C340.902 404.762 348.839 436.963 351.239 445.806C354.523 431.189 358.929 412.779 362.954 398.552C367.159 398.59 372.094 398.842 376.229 398.569C412.647 396.16 449.18 396.857 485.675 396.888C477.37 425.724 469.253 454.611 461.321 483.553C462.704 480.447 464.142 477.364 465.631 474.309C483.714 438.032 516.864 411.271 555.108 398.628C555.576 403.682 555.577 405.372 555.157 410.431C577.949 397.467 593.907 393.065 620.15 390.714ZM635.784 618.08C675.509 617.129 706.989 584.235 706.198 544.501C705.408 504.769 672.645 473.151 632.913 473.781C592.954 474.414 561.121 507.41 561.914 547.372C562.709 587.333 595.832 619.038 635.784 618.08Z" fill="#DDF438"/>
<path d="M513.582 24.7164C515.325 24.3649 522.326 24.1974 524.406 24.2775C577.423 26.3194 604.236 39.9847 640.126 76.0862C640.072 69.3258 640.057 62.5653 640.08 55.8047C667.982 70.413 696.05 92.9693 712.118 120.458C728.72 149.51 733.278 183.911 724.816 216.285C712.849 261.551 678.672 289.109 640.152 311.644C639.969 302.781 640.034 293.642 639.984 284.753C603.335 323.485 566.976 335.938 514.534 336.687C491.253 337.022 476.443 338.989 452.789 332.828C410.893 321.915 380.261 297.752 357.984 261.018C344.807 285.555 321.95 304.391 297.711 317.288C297.675 310.675 297.318 300.232 298.357 294.035C293.42 298.375 289.074 301.672 283.847 305.6C244.843 333.543 203.572 329.22 158.378 329.194L38.5755 329.161L38.4624 31.2142L145.968 31.2642C207.503 31.2586 248.027 23.6918 297.814 66.2142C297.734 59.465 297.767 52.715 297.913 45.9669C325.077 59.378 342.13 77.1398 358.319 102.276C363.485 92.9444 369.589 84.8679 376.618 76.8485C400.426 49.4534 433.575 31.8966 469.612 27.5947C482.322 25.9686 500.021 25.6114 513.582 24.7164ZM512.296 252.016C524.828 247.527 535.175 242.694 544.843 232.809C547.229 230.368 552.371 223.194 554.572 221.954C555.058 225.392 555.232 226.94 555.236 230.469C555.394 235.437 555.65 240.657 555.54 245.606C608.096 215.264 608.091 145.516 555.354 114.777C555.407 123.787 555.723 134.427 554.874 143.254C541.93 125.883 526.703 112.861 504.317 110.267C463.656 121.84 443.481 161.93 454.75 201.736C459.683 219.667 471.696 234.82 488.029 243.712C496.739 248.426 502.925 249.939 512.296 252.016ZM171.04 246.362C198.273 246.601 224.954 250.306 245.644 228.432C269.45 198.113 269.899 151.454 238.485 125.492C219.229 109.578 194.101 114.594 170.857 114.012C171.042 157.872 170.417 202.637 171.04 246.362Z" fill="#DDF438"/>
<path d="M1082.66 396.144C1111.98 397.603 1143.91 396.267 1173.39 396.405C1205.27 396.552 1220.11 395.493 1250.57 405.853C1253.49 404.372 1250.13 402.71 1252.87 399.008C1279.17 394.106 1317.66 413.935 1335.06 433.517C1328.61 421.738 1321.26 408.94 1315.55 396.888H1408.79C1419.31 419.169 1429.69 441.516 1439.93 463.927C1444.63 474.138 1453.14 491.365 1456.59 501.223C1461.59 492.045 1468.33 476.114 1472.95 466.102L1504.84 396.843L1598.44 396.833C1591.19 411.551 1581.62 428.38 1573.76 442.973L1526.12 531.379C1521.43 540.057 1499.51 578.945 1499.41 583.855C1498.72 614.197 1497.94 665.988 1499.23 695.206C1470.94 694.979 1442.65 694.97 1414.37 695.173C1414.24 687.525 1414.35 679.612 1414.35 671.939L1414.47 615.103C1414.56 571.102 1411.78 576.143 1390.8 537.288C1379.46 516.404 1368.23 495.459 1357.12 474.456C1368.89 519.464 1353.66 559.184 1315.44 585.252C1318.09 589.742 1321.18 595.537 1323.42 600.247C1338.54 631.935 1358.89 663.954 1372.7 696.055C1326.74 697.678 1279.92 694.286 1234.06 694.519C1219.06 665.524 1200.91 630.181 1187.38 600.785C1181.5 601.157 1173.3 601.023 1167.25 601.096C1167.64 632.037 1167.34 663.641 1167.38 694.637C1144.17 694.317 1104.36 693.315 1082.63 694.963L1082.66 396.144ZM1167.36 530.04C1185.66 530.214 1206.33 533.66 1219.79 522.158C1223.01 518.336 1225.92 514.587 1226.53 509.454C1231.56 467.399 1193.11 476.086 1167.31 475.089L1167.36 530.04Z" fill="#DDF438"/>
<path d="M1045.04 31.1228C1079.3 31.5958 1113.85 30.7616 1148.05 31.3872C1145.76 66.1065 1147.62 106.194 1147.51 141.425C1147.31 203.931 1146.96 266.836 1147.81 329.318C1129.4 329.108 1110.99 329.098 1092.58 329.287C1087.94 329.297 1064.77 329.748 1061.91 328.264C983.853 287.825 906.646 241.712 829.251 200.28C830.541 240.061 829.631 284.413 829.656 324.406L829.702 336.163C802.977 335.099 763.608 335.12 736.954 336.141C737.121 237.23 737.854 136.837 736.78 37.9745C750.693 38.2055 801.721 37.1179 811.598 39.0052C819.43 40.5018 871.21 70.4648 880.925 75.8579L1045 166.885L1045.04 31.1228Z" fill="#DDF438"/>
<path d="M820.779 396.259C850.156 397.358 880.26 396.002 909.587 396.409C936.186 396.776 962.817 394.23 987.565 406.022C990.352 407.352 999.84 412.101 1001.83 411.765L1002.35 408.235L1003.87 407.601C1008.08 408.848 1012.24 411.017 1016.08 413.157C1058.96 437.043 1075.5 487.28 1061.71 533.321C1054.77 556.481 1040.4 571.74 1021.01 585.204C1023.39 589.123 1032.34 605.495 1033.92 609.412C1039.06 622.13 1077.96 686.211 1073.92 695.65C1068.02 696.76 1034.74 696.165 1026.71 696.129C1007.89 696.37 991.59 694.203 972.251 694.531L944.774 639.854C938.817 627.973 930.88 612.977 925.95 600.862L904.888 601.102C905.631 610.802 905.214 624.683 905.208 634.647C905.119 654.61 905.216 674.573 905.498 694.534C882.644 694.454 841.932 693.149 820.549 694.946L820.602 495.571C820.595 467.235 819.22 423.67 820.779 396.259ZM905.357 530.075C922.672 530.163 945.174 533.35 957.961 522.506C962.181 517.622 964.529 513.499 964.967 506.904C967.613 467.152 929.805 476.154 905.024 475.09C905.751 493.162 904.939 511.917 905.357 530.075Z" fill="#DDF438"/>
<path d="M1332.29 752.608L1418.55 752.559C1446.11 752.559 1476.2 749.804 1501.73 761.141C1503.84 762.08 1512.28 765.879 1514.05 765.502C1513.94 762.984 1513.56 761.751 1514.87 759.774C1517.24 759.339 1518.24 759.926 1520.48 760.865C1545.34 771.243 1567.44 791.506 1577.67 816.743C1589.05 844.799 1589.13 882.535 1577.36 910.78C1566.21 937.533 1545.76 955.053 1519.6 966.805C1517.22 967.869 1516.37 968.183 1514.46 967.341C1514.38 964.636 1514.38 964.35 1513.61 961.785C1510.91 961.176 1508.12 963.363 1505.04 964.904C1477.71 976.902 1450.35 974.751 1421.17 974.76L1421.39 1062.27C1391.74 1062.1 1362.08 1062.08 1332.43 1062.22L1332.29 752.608ZM1421.3 888.686C1437.33 888.809 1461.44 891.761 1472.92 881.487C1483.66 867.259 1481.71 844.575 1462.13 839.515C1450.7 836.56 1433.42 839.071 1421.17 838.507L1421.3 888.686Z" fill="#DDF438"/>
<path d="M1593.1 31.1734C1595.77 31.168 1596.65 30.8906 1598.72 32.3265C1598.39 59.5647 1598.47 86.8064 1598.93 114.043L1493.34 114.06C1494.03 135.388 1493.43 160.504 1493.43 182.096L1493.64 329.291C1454.51 328.756 1413.91 329.046 1374.76 329.266C1374.31 298.098 1374.73 265.967 1374.76 234.725L1374.85 113.892C1340.29 114.356 1305.14 113.843 1270.47 114.122C1269.68 87.5074 1270.28 58.1908 1270.05 31.2677L1593.1 31.1734Z" fill="#DDF438"/>
<path d="M1175.23 31.2124L1246.83 31.3342C1244.77 43.7146 1244 61.7032 1243.09 74.4824C1241.37 98.2579 1239.76 122.043 1238.28 145.835L1237.84 149.932C1235.87 151.048 1189.14 150.708 1182.3 150.939C1181.6 124.472 1178.29 96.4824 1176.88 70.0178C1176.51 63.0175 1173.71 36.8491 1175.23 31.2124Z" fill="#DDF438"/>
</svg>
